<svg width="200" height="201" viewBox="0 0 200 201" fill="none" xmlns="http://www.w3.org/2000/svg">
<rect width="46.0991" height="15.3532" transform="matrix(0.70998 0.704222 -0.710759 0.703435 120.166 111.741)" fill="white"/>
<rect width="37.6685" height="22.6557" transform="matrix(0.70998 0.704222 -0.710759 0.703435 128.747 115.109)" fill="white"/>
<path fill-rule="evenodd" clip-rule="evenodd" d="M128.857 138.571C124.951 142.429 122.07 147.595 124.251 149.706L144.5 169.303L159.998 189.122C163.807 193.994 173.79 191.501 181.74 183.694C189.673 175.903 192.273 166.067 187.409 162.248L167.04 146.255L147.764 126.614C145.574 124.384 140.233 127.333 136.209 131.308L128.857 138.571Z" fill="white"/>
<ellipse cx="72.5" cy="73.2551" rx="53.5" ry="53" fill="#C4C4C4" fill-opacity="0.5"/>
<path fill-rule="evenodd" clip-rule="evenodd" d="M72.3379 137.129C107.918 137.129 136.762 108.56 136.762 73.3185C136.762 38.0768 107.918 9.50781 72.3379 9.50781C36.7573 9.50781 7.91357 38.0768 7.91357 73.3185C7.91357 108.56 36.7573 137.129 72.3379 137.129ZM72.5 126.255C102.047 126.255 126 102.526 126 73.2551C126 43.984 102.047 20.2551 72.5 20.2551C42.9528 20.2551 19 43.984 19 73.2551C19 102.526 42.9528 126.255 72.5 126.255Z" fill="white"/>
</svg>
