<svg width="20" height="20" viewBox="0 0 20 20" fill="none" xmlns="http://www.w3.org/2000/svg">
<path d="M10 0.5C4.47656 0.5 0 4.89115 0 10.3092C0 15.2038 3.65195 19.2605 8.43281 19.9992V13.147H5.8957V10.3092H8.43281V8.14849C8.43281 5.69198 9.92188 4.33172 12.2082 4.33172H12.2137C13.3098 4.33172 14.4547 4.5233 14.4547 4.5233V6.93729H13.1945C11.9508 6.93729 11.5672 7.6952 11.5672 8.46998V10.3092H14.3406L13.8965 13.147H11.5672V20C16.3453 19.2639 20 15.2058 20 10.3092C20 4.89115 15.5234 0.5 10 0.5Z" fill="#1877F2"/>
</svg>
