<svg width="21" height="20" viewBox="0 0 21 20" fill="none" xmlns="http://www.w3.org/2000/svg">
<path d="M19.6295 14.9428C19.5472 14.6741 19.1531 14.4847 19.1531 14.4847C19.1159 14.4654 19.0825 14.448 19.0551 14.4344C18.3983 14.1213 17.8161 13.7443 17.326 13.3171C16.9319 12.973 16.5947 12.5941 16.3242 12.1921C15.9928 11.701 15.8379 11.2912 15.7713 11.0689C15.734 10.9239 15.7399 10.8659 15.7713 10.7906C15.7968 10.7268 15.8732 10.6669 15.9085 10.6379C16.1301 10.4832 16.4868 10.2551 16.7064 10.1159C16.8966 9.99413 17.0593 9.88977 17.1554 9.82401C17.4632 9.6114 17.6749 9.39487 17.7984 9.16098C17.9592 8.85945 17.9788 8.52692 17.8533 8.20023C17.6847 7.75949 17.2671 7.4966 16.7358 7.4966C16.6182 7.4966 16.4967 7.51012 16.3751 7.53525C16.0713 7.60097 15.7831 7.70729 15.5419 7.80009C15.5379 7.8019 15.5334 7.80263 15.529 7.8022C15.5246 7.80176 15.5204 7.80019 15.5168 7.79763C15.5133 7.79508 15.5104 7.79163 15.5086 7.78764C15.5068 7.78366 15.5061 7.77927 15.5066 7.77494C15.5321 7.18535 15.5615 6.3928 15.4949 5.64085C15.436 4.96039 15.2929 4.38625 15.0616 3.8856C14.8283 3.38301 14.5244 3.01184 14.2872 2.74315C14.0617 2.48798 13.6638 2.11105 13.0639 1.77276C12.2209 1.29722 11.2602 1.05557 10.2094 1.05557C9.16052 1.05557 8.20185 1.29722 7.35689 1.77276C6.72167 2.13037 6.31586 2.53438 6.13159 2.74315C5.89435 3.01184 5.59049 3.38301 5.35718 3.8856C5.12387 4.38629 4.98273 4.95847 4.92391 5.64085C4.85729 6.39668 4.88472 7.12547 4.91215 7.77497C4.91215 7.79429 4.8945 7.80782 4.8749 7.80009C4.63376 7.70729 4.34557 7.60097 4.0417 7.53525C3.92211 7.51012 3.80057 7.4966 3.68097 7.4966C3.15163 7.4966 2.73406 7.75949 2.56347 8.20023C2.43803 8.52692 2.45763 8.85941 2.6184 9.16098C2.74384 9.39487 2.95362 9.61136 3.26141 9.82401C3.35553 9.88977 3.5202 9.99417 3.71038 10.1159C3.92406 10.2532 4.27108 10.4755 4.49457 10.6282C4.522 10.6475 4.61612 10.7171 4.64553 10.7906C4.67689 10.8679 4.68277 10.9259 4.64163 11.0805C4.57299 11.3048 4.4181 11.7107 4.09266 12.1921C3.82211 12.5961 3.48494 12.973 3.09086 13.3171C2.60075 13.7443 2.01847 14.1213 1.36171 14.4344C1.33035 14.4499 1.2931 14.4673 1.25388 14.4905C1.25388 14.4905 0.861782 14.6877 0.787296 14.9428C0.677517 15.3198 0.969613 15.6735 1.26568 15.863C1.75185 16.1723 2.34391 16.3385 2.687 16.4294C2.78303 16.4545 2.86932 16.4777 2.94774 16.5009C2.99674 16.5164 3.12027 16.5627 3.17321 16.6304C3.23983 16.7155 3.2477 16.8199 3.27123 16.9378C3.30847 17.1369 3.39277 17.3824 3.64174 17.5525C3.91623 17.7381 4.26325 17.7516 4.70435 17.769C5.16505 17.7864 5.73751 17.8077 6.39428 18.0222C6.69817 18.1208 6.97457 18.289 7.29222 18.4823C7.95876 18.8863 8.78802 19.3889 10.2035 19.3889C11.6209 19.3889 12.4561 18.8844 13.1266 18.4784C13.4442 18.2871 13.7167 18.1208 14.0147 18.0241C14.6714 17.8096 15.2439 17.7883 15.7046 17.7709C16.1457 17.7535 16.4927 17.7419 16.7672 17.5544C17.0338 17.3727 17.1103 17.1021 17.1456 16.8991C17.1652 16.7986 17.1769 16.7077 17.2358 16.6343C17.2867 16.5705 17.4004 16.526 17.4534 16.5086C17.5338 16.4835 17.6239 16.4603 17.7239 16.4332C18.067 16.3424 18.4983 16.236 19.0218 15.9441C19.6531 15.5904 19.6962 15.1574 19.6295 14.9428V14.9428Z" fill="white"/>
<path d="M20.1362 14.7256C19.9975 14.3514 19.7318 14.1528 19.431 13.9869C19.3744 13.9541 19.3217 13.9271 19.2787 13.9078C19.1889 13.8616 19.0971 13.8172 19.0052 13.7709C18.0657 13.2791 17.3313 12.6581 16.8235 11.9233C16.6516 11.6745 16.5324 11.4508 16.4484 11.2676C16.4055 11.1441 16.4074 11.0747 16.4387 11.011C16.4621 10.9628 16.5246 10.9127 16.5598 10.8876C16.7061 10.7919 16.8533 10.6974 17.0012 10.6041C17.2024 10.4749 17.3626 10.3726 17.4641 10.3032C17.8509 10.0371 18.1204 9.75357 18.2884 9.43728C18.5267 8.99178 18.556 8.48261 18.3724 8.0043C18.1185 7.34085 17.4817 6.92815 16.7121 6.92815C16.552 6.92815 16.3899 6.94547 16.2297 6.98019C16.1867 6.98985 16.1457 6.9995 16.1047 7.00913C16.1125 6.55783 16.1008 6.07568 16.0598 5.60508C15.9152 3.94645 15.3273 3.07666 14.714 2.38428C14.4581 2.09498 14.0128 1.67261 13.3448 1.29459C12.4131 0.766155 11.3583 0.5 10.2079 0.5C9.0613 0.5 8.00658 0.766155 7.07485 1.29271C6.40293 1.6707 5.9576 2.09498 5.70369 2.38236C5.09038 3.07474 4.50245 3.94453 4.35788 5.60316C4.31693 6.07377 4.30711 6.55588 4.31297 7.00721C4.27198 6.99755 4.22898 6.98793 4.18799 6.97827C4.02952 6.94391 3.86777 6.92645 3.70552 6.92619C2.93595 6.92619 2.2992 7.33893 2.04529 8.00239C1.8617 8.48066 1.89097 8.98982 2.12928 9.43533C2.29726 9.75165 2.56875 10.0352 2.95353 10.3013C3.05705 10.3727 3.21528 10.4749 3.41645 10.6022C3.52582 10.6716 3.68406 10.7738 3.84031 10.876C3.86376 10.8915 3.94775 10.9532 3.97701 11.011C4.01024 11.0766 4.01023 11.148 3.96141 11.2791C3.87936 11.4585 3.76021 11.6784 3.59223 11.9214C3.09415 12.6407 2.38124 13.2502 1.47296 13.7362C0.990526 13.9888 0.490507 14.1566 0.279562 14.7236C0.119385 15.1518 0.22484 15.6397 0.629183 16.0505C0.761999 16.1913 0.929979 16.3167 1.14092 16.4324C1.63706 16.7024 2.05895 16.8355 2.39099 16.9261C2.44959 16.9435 2.58439 16.9859 2.64296 17.038C2.79141 17.1653 2.76991 17.3582 2.9672 17.6397C3.08635 17.8152 3.22308 17.9348 3.33638 18.012C3.74849 18.2936 4.21334 18.3109 4.70559 18.3302C5.14899 18.3476 5.65292 18.3668 6.22715 18.5539C6.46546 18.631 6.71351 18.7815 6.9987 18.9551C7.68622 19.3736 8.62963 19.9444 10.2059 19.9444C11.7841 19.9444 12.7314 19.3697 13.4248 18.9512C13.71 18.7795 13.9561 18.6291 14.1866 18.5539C14.7608 18.3668 15.2648 18.3475 15.7082 18.3302C16.2004 18.3109 16.6633 18.2936 17.0774 18.012C17.2499 17.8931 17.3939 17.7384 17.4993 17.5587C17.6399 17.3215 17.638 17.1537 17.7708 17.0399C17.8255 16.9936 17.9446 16.9531 18.0091 16.9338C18.3431 16.8432 18.7708 16.7101 19.2767 16.4343C19.5014 16.3128 19.6752 16.1798 19.8139 16.0274L19.8197 16.0216C20.1967 15.6166 20.2924 15.1441 20.1362 14.7256V14.7256ZM18.7357 15.4681C17.8802 15.9348 17.3118 15.8847 16.8704 16.1643C16.4953 16.4035 16.716 16.9184 16.4446 17.1036C16.1086 17.3331 15.1183 17.0881 13.8389 17.5047C12.7842 17.85 12.1103 18.8394 10.2098 18.8394C8.30539 18.8394 7.65106 17.8538 6.58069 17.5047C5.30132 17.0881 4.30909 17.3331 3.97507 17.1036C3.70358 16.9184 3.9243 16.4035 3.5493 16.1643C3.10785 15.8828 2.53944 15.9329 1.68394 15.4681C1.13898 15.1711 1.44758 14.9879 1.62922 14.9011C4.72706 13.4218 5.21928 11.1345 5.24272 10.9628C5.27008 10.7584 5.29938 10.5964 5.07086 10.3862C4.85013 10.1836 3.86768 9.58384 3.59615 9.39678C3.14495 9.08628 2.94767 8.77575 3.09415 8.39386C3.19572 8.12966 3.44575 8.03132 3.70944 8.03132C3.79149 8.03132 3.87548 8.04094 3.95551 8.0583C4.44971 8.16438 4.9302 8.40934 5.20756 8.47488C5.24664 8.48453 5.27982 8.4884 5.30913 8.4884C5.45758 8.4884 5.50835 8.41509 5.49861 8.24731C5.46736 7.71308 5.38923 6.67165 5.47516 5.69767C5.59238 4.35919 6.02987 3.69574 6.54945 3.10751C6.79944 2.82595 7.97141 1.60317 10.2118 1.60317C12.458 1.60317 13.6241 2.82595 13.8741 3.10751C14.3936 3.69385 14.8312 4.35727 14.9484 5.69767C15.0343 6.67165 14.9601 7.71308 14.9249 8.24731C14.9132 8.42283 14.9679 8.4884 15.1144 8.4884C15.1437 8.4884 15.1788 8.48457 15.216 8.47488C15.4933 8.40934 15.9738 8.16438 16.468 8.0583C16.5488 8.04066 16.6313 8.03161 16.7141 8.03132C16.9778 8.03132 17.2278 8.13161 17.3294 8.39386C17.4759 8.77575 17.2766 9.08628 16.8274 9.39678C16.5559 9.58384 15.5734 10.1837 15.3527 10.3862C15.1242 10.5945 15.1535 10.7564 15.1808 10.9628C15.2023 11.1345 15.6964 13.4218 18.7943 14.9011C18.9701 14.9879 19.2806 15.1711 18.7357 15.4681V15.4681Z" fill="black"/>
</svg>
