<svg width="20" height="20" viewBox="0 0 20 20" fill="none" xmlns="http://www.w3.org/2000/svg">
<path d="M14.3251 7.21958C15.6165 8.14222 17.1985 8.68509 18.9071 8.68509V5.39886C18.5837 5.39893 18.2612 5.36523 17.9448 5.29824V7.88496C16.2363 7.88496 14.6546 7.3421 13.3628 6.41952V13.1257C13.3628 16.4805 10.6419 19.1999 7.28556 19.1999C6.03324 19.1999 4.86926 18.8215 3.90234 18.1726C5.00592 19.3004 6.54494 20 8.2476 20C11.6041 20 14.3252 17.2806 14.3252 13.9257V7.21958H14.3251V7.21958ZM15.5121 3.90418C14.8522 3.18354 14.4189 2.25225 14.3251 1.22267V0.799988H13.4132C13.6428 2.10859 14.4256 3.22658 15.5121 3.90418ZM6.02521 15.5982C5.65648 15.115 5.45722 14.5239 5.45811 13.9161C5.45811 12.3817 6.70267 11.1376 8.23813 11.1376C8.52428 11.1376 8.80872 11.1813 9.08142 11.2678V7.90816C8.76273 7.86451 8.44109 7.84598 8.11959 7.85277V10.4678C7.84668 10.3813 7.5621 10.3374 7.27588 10.3376C5.74042 10.3376 4.49593 11.5816 4.49593 13.1161C4.49593 14.2012 5.11801 15.1406 6.02521 15.5982Z" fill="#FF004F"/>
<path d="M13.3625 6.41945C14.6542 7.34203 16.236 7.88489 17.9445 7.88489V5.29817C16.9908 5.09514 16.1466 4.59702 15.5118 3.90418C14.4253 3.22651 13.6424 2.10852 13.4129 0.799988H11.0177V13.9255C11.0123 15.4557 9.76983 16.6947 8.23767 16.6947C7.33479 16.6947 6.53268 16.2645 6.02468 15.5982C5.11755 15.1406 4.49548 14.2011 4.49548 13.1162C4.49548 11.5818 5.73997 10.3377 7.27542 10.3377C7.56961 10.3377 7.85315 10.3835 8.11913 10.4678V7.85284C4.82179 7.92093 2.16992 10.6138 2.16992 13.9256C2.16992 15.5788 2.8303 17.0776 3.90209 18.1726C4.86901 18.8215 6.03299 19.2 7.2853 19.2C10.6417 19.2 13.3626 16.4805 13.3626 13.1257V6.41945H13.3625Z" fill="black"/>
<path d="M17.9448 5.29817V4.59874C17.0848 4.60004 16.2417 4.35932 15.5121 3.90411C16.158 4.61089 17.0085 5.09822 17.9448 5.29817ZM13.4132 0.799986C13.3913 0.674926 13.3745 0.549042 13.3628 0.422678V0H10.0556V13.1257C10.0503 14.6556 8.80798 15.8946 7.27569 15.8946C6.82583 15.8946 6.40109 15.7879 6.02495 15.5983C6.53295 16.2645 7.33506 16.6946 8.23794 16.6946C9.76996 16.6946 11.0126 15.4558 11.0179 13.9256V0.799986H13.4132ZM8.11953 7.85284V7.10824C7.84319 7.07049 7.56459 7.05155 7.28564 7.05169C3.92899 7.05162 1.20801 9.77116 1.20801 13.1257C1.20801 15.2288 2.2774 17.0822 3.90243 18.1725C2.83063 17.0775 2.17026 15.5787 2.17026 13.9255C2.17026 10.6138 4.82205 7.92093 8.11953 7.85284Z" fill="#00F2EA"/>
</svg>
