<svg width="21" height="20" viewBox="0 0 21 20" fill="none" xmlns="http://www.w3.org/2000/svg">
<g clip-path="url(#clip0_435_23419)">
<path d="M20.0703 3.92358C19.3345 4.24991 18.5436 4.47037 17.7137 4.56955C18.5608 4.06185 19.2115 3.25793 19.5178 2.29994C18.7249 2.77014 17.8468 3.11146 16.9121 3.29542C16.1637 2.49809 15.0973 2 13.9171 2C11.6511 2 9.8138 3.8367 9.8138 6.10222C9.8138 6.42375 9.8501 6.73688 9.9201 7.03712C6.50989 6.86605 3.48648 5.2328 1.46268 2.75084C1.10948 3.35671 0.90708 4.06136 0.90708 4.8132C0.90708 6.23649 1.63148 7.49212 2.73248 8.22776C2.05988 8.20646 1.42718 8.0219 0.87398 7.71467C0.873513 7.73176 0.873513 7.74896 0.873513 7.76626C0.873513 9.75383 2.28792 11.4118 4.16502 11.7889C3.82072 11.8827 3.45822 11.9328 3.08402 11.9328C2.81962 11.9328 2.56262 11.907 2.31202 11.8592C2.83422 13.4889 4.34952 14.675 6.14512 14.708C4.74082 15.8083 2.97162 16.4642 1.04911 16.4642C0.717913 16.4642 0.391313 16.4447 0.0703125 16.4068C1.88622 17.5708 4.04302 18.25 6.36022 18.25C13.9075 18.25 18.0348 11.999 18.0348 6.57781C18.0348 6.39995 18.0308 6.22309 18.0229 6.04703C18.8245 5.46875 19.5201 4.74631 20.0702 3.92358H20.0703Z" fill="#2AA9E0"/>
</g>
<defs>
<clipPath id="clip0_435_23419">
<rect width="20" height="20" fill="white" transform="translate(0.0830078)"/>
</clipPath>
</defs>
</svg>
