<svg width="350" height="130" viewBox="0 0 350 130" fill="none" xmlns="http://www.w3.org/2000/svg">
<path d="M59.5415 3.80812C65.3865 3.59548 71.2677 3.38284 77.1671 3.17021C79.5653 12.4254 81.8982 21.4355 84.2347 30.442C84.4052 30.424 84.5757 30.4096 84.7463 30.3916C86.1395 20.3867 87.5291 10.3819 88.9259 0.348236C94.6765 0.348236 100.387 0.348236 106.268 0.348236C102.782 20.7255 99.3278 40.9118 95.8484 61.2675C89.9998 61.7108 84.173 62.154 78.2809 62.6045C75.7013 53.4431 73.1761 44.4798 70.6509 35.5165C70.513 35.5382 70.3752 35.5634 70.2373 35.585C68.9965 43.5788 67.7593 51.5726 66.5257 59.5375C60.6118 59.5375 54.7778 59.5375 48.9328 59.5375C52.4775 40.919 55.9895 22.4807 59.5415 3.80812Z" fill="white"/>
<path d="M59.5415 3.80812C65.3865 3.59548 71.2677 3.38284 77.1671 3.17021C79.5653 12.4254 81.8982 21.4355 84.2347 30.442C84.4052 30.424 84.5757 30.4096 84.7463 30.3916C86.1395 20.3867 87.5291 10.3819 88.9259 0.348236C94.6765 0.348236 100.387 0.348236 106.268 0.348236C102.782 20.7255 99.3278 40.9118 95.8484 61.2675C89.9998 61.7108 84.173 62.154 78.2809 62.6045C75.7013 53.4431 73.1761 44.4798 70.6509 35.5165C70.513 35.5382 70.3752 35.5634 70.2373 35.585C68.9965 43.5788 67.7593 51.5726 66.5257 59.5375C60.6118 59.5375 54.7778 59.5375 48.9328 59.5375C52.4775 40.919 55.9895 22.4807 59.5415 3.80812Z" fill="url(#paint0_linear_164_5268)" fill-opacity="0.2"/>
<path d="M243.398 126.962C246.957 108.26 250.466 89.8257 254.014 71.2036C259.852 70.9909 265.693 70.7747 271.639 70.5585C274.016 79.7344 276.352 88.7589 278.689 97.787C278.863 97.787 279.037 97.7834 279.211 97.7834C280.608 87.7678 282.009 77.7485 283.402 67.7581C289.196 67.7581 294.903 67.7581 300.741 67.7581C297.261 88.103 293.815 108.25 290.321 128.656C284.512 129.099 278.645 129.55 272.75 130C270.174 120.839 267.663 111.911 265.152 102.988C265.004 102.995 264.858 103.002 264.71 103.013C263.476 110.956 262.243 118.896 260.991 126.962C255.153 126.962 249.326 126.962 243.398 126.962Z" fill="white"/>
<path d="M243.398 126.962C246.957 108.26 250.466 89.8257 254.014 71.2036C259.852 70.9909 265.693 70.7747 271.639 70.5585C274.016 79.7344 276.352 88.7589 278.689 97.787C278.863 97.787 279.037 97.7834 279.211 97.7834C280.608 87.7678 282.009 77.7485 283.402 67.7581C289.196 67.7581 294.903 67.7581 300.741 67.7581C297.261 88.103 293.815 108.25 290.321 128.656C284.512 129.099 278.645 129.55 272.75 130C270.174 120.839 267.663 111.911 265.152 102.988C265.004 102.995 264.858 103.002 264.71 103.013C263.476 110.956 262.243 118.896 260.991 126.962C255.153 126.962 249.326 126.962 243.398 126.962Z" fill="url(#paint1_linear_164_5268)" fill-opacity="0.2"/>
<path d="M305.153 69.7043C314.448 68.3204 323.667 67.25 332.93 69.2502C342.78 71.3766 348.081 76.6457 348.955 86.5821C349.942 97.8087 347.544 108.466 340.578 117.663C335.466 124.414 328.152 127.538 320.003 128.948C311.466 130.425 302.921 129.96 294.388 128.843C294.156 128.814 293.931 128.731 293.543 128.634C297.407 109.035 301.26 89.4797 305.153 69.7043ZM315.05 115.184C319.411 115.926 322.728 114.344 324.698 110.077C327.778 103.395 329.251 96.295 328.877 88.9319C328.649 84.4485 325.449 82.286 320.783 83.2772C318.882 93.8586 316.966 104.519 315.05 115.184Z" fill="white"/>
<path d="M305.153 69.7043C314.448 68.3204 323.667 67.25 332.93 69.2502C342.78 71.3766 348.081 76.6457 348.955 86.5821C349.942 97.8087 347.544 108.466 340.578 117.663C335.466 124.414 328.152 127.538 320.003 128.948C311.466 130.425 302.921 129.96 294.388 128.843C294.156 128.814 293.931 128.731 293.543 128.634C297.407 109.035 301.26 89.4797 305.153 69.7043ZM315.05 115.184C319.411 115.926 322.728 114.344 324.698 110.077C327.778 103.395 329.251 96.295 328.877 88.9319C328.649 84.4485 325.449 82.286 320.783 83.2772C318.882 93.8586 316.966 104.519 315.05 115.184Z" fill="url(#paint2_linear_164_5268)" fill-opacity="0.2"/>
<path d="M294.885 60.1571C298.785 40.7565 302.671 21.428 306.575 2.02024C316.433 0.319125 326.225 -1.09366 336.112 1.1877C338.035 1.631 339.95 2.32298 341.703 3.22038C347.958 6.40997 350.762 12.3855 349.823 19.6476C348.72 28.1892 344.906 34.8675 336.667 38.9725C338.746 46.2779 340.818 53.5653 342.954 61.0834C336.359 61.7141 329.897 62.3304 323.333 62.9611C321.955 56.29 320.598 49.7414 319.219 43.0848C318.218 43.1712 317.401 43.2433 316.469 43.3262C315.479 48.9377 314.503 54.4735 313.498 60.1607C307.315 60.1571 301.184 60.1571 294.885 60.1571ZM321.748 14.966C320.816 20.1882 319.876 25.4754 318.932 30.7553C325.242 31.9158 330.223 27.8757 330.673 21.4424C331.04 16.195 327.034 13.2252 321.748 14.966Z" fill="white"/>
<path d="M294.885 60.1571C298.785 40.7565 302.671 21.428 306.575 2.02024C316.433 0.319125 326.225 -1.09366 336.112 1.1877C338.035 1.631 339.95 2.32298 341.703 3.22038C347.958 6.40997 350.762 12.3855 349.823 19.6476C348.72 28.1892 344.906 34.8675 336.667 38.9725C338.746 46.2779 340.818 53.5653 342.954 61.0834C336.359 61.7141 329.897 62.3304 323.333 62.9611C321.955 56.29 320.598 49.7414 319.219 43.0848C318.218 43.1712 317.401 43.2433 316.469 43.3262C315.479 48.9377 314.503 54.4735 313.498 60.1607C307.315 60.1571 301.184 60.1571 294.885 60.1571ZM321.748 14.966C320.816 20.1882 319.876 25.4754 318.932 30.7553C325.242 31.9158 330.223 27.8757 330.673 21.4424C331.04 16.195 327.034 13.2252 321.748 14.966Z" fill="url(#paint3_linear_164_5268)" fill-opacity="0.2"/>
<path d="M176.107 62.6153C171.002 62.6225 166.086 61.8657 161.852 58.777C157.03 55.2559 155.172 50.1309 154.926 44.5158C154.432 33.2135 156.805 22.5347 163.394 13.1173C170.665 2.72327 183.269 -1.789 195.648 1.28525C203.075 3.13053 207.737 7.84823 208.626 15.287C210.298 29.2743 207.436 42.3462 198.253 53.4178C192.622 60.2042 184.774 62.6045 176.107 62.6153ZM189.092 21.6806C189.041 20.794 189.027 19.6551 188.907 18.5234C188.729 16.8475 188.265 15.305 186.378 14.7608C184.481 14.213 182.797 14.8004 181.672 16.2637C180.591 17.6693 179.543 19.2658 179.078 20.9417C177.707 25.9009 176.441 30.9069 175.508 35.9634C174.96 38.9331 175.022 42.0362 175.033 45.078C175.036 46.6134 175.744 48.073 177.431 48.5559C179.26 49.0785 181.037 48.7073 182.173 47.1648C183.258 45.6871 184.245 44.0473 184.858 42.3318C187.205 35.7363 188.381 28.8851 189.092 21.6806Z" fill="white"/>
<path d="M176.107 62.6153C171.002 62.6225 166.086 61.8657 161.852 58.777C157.03 55.2559 155.172 50.1309 154.926 44.5158C154.432 33.2135 156.805 22.5347 163.394 13.1173C170.665 2.72327 183.269 -1.789 195.648 1.28525C203.075 3.13053 207.737 7.84823 208.626 15.287C210.298 29.2743 207.436 42.3462 198.253 53.4178C192.622 60.2042 184.774 62.6045 176.107 62.6153ZM189.092 21.6806C189.041 20.794 189.027 19.6551 188.907 18.5234C188.729 16.8475 188.265 15.305 186.378 14.7608C184.481 14.213 182.797 14.8004 181.672 16.2637C180.591 17.6693 179.543 19.2658 179.078 20.9417C177.707 25.9009 176.441 30.9069 175.508 35.9634C174.96 38.9331 175.022 42.0362 175.033 45.078C175.036 46.6134 175.744 48.073 177.431 48.5559C179.26 49.0785 181.037 48.7073 182.173 47.1648C183.258 45.6871 184.245 44.0473 184.858 42.3318C187.205 35.7363 188.381 28.8851 189.092 21.6806Z" fill="url(#paint4_linear_164_5268)" fill-opacity="0.2"/>
<path d="M156.377 90.2654C149.843 90.0564 143.649 89.8618 137.449 89.6635C137.558 88.0489 137.783 86.5604 137.728 85.0792C137.623 82.1058 135.715 80.7687 132.812 81.5184C130.697 82.0662 129.663 83.6412 129.144 85.5946C128.661 87.4074 128.872 89.2671 130.53 90.2834C132.446 91.4547 134.59 92.3089 136.716 93.091C139.709 94.1902 142.891 94.8353 145.786 96.1292C152.241 99.016 154.381 103.514 153.202 110.434C151.606 119.779 146.008 125.538 137.086 128.216C130.624 130.155 123.999 130.451 117.363 129.157C107.429 127.218 102.513 120.356 103.794 110.365C103.907 109.479 104.019 108.592 104.168 107.45C110.695 107.45 117.175 107.45 123.582 107.45C123.582 108.992 123.484 110.603 123.604 112.2C123.778 114.503 125.022 115.908 126.876 116.153C129.402 116.485 131.245 115.479 132.134 113.288C133.353 110.271 132.823 108.462 129.855 107.06C127.471 105.936 124.888 105.226 122.406 104.3C120.378 103.543 118.285 102.898 116.358 101.928C110.593 99.0268 108.112 94.0713 108.823 87.6813C109.908 77.936 115.411 71.9496 124.678 69.2574C131.586 67.25 138.613 66.9364 145.598 68.9042C152.35 70.8072 156.362 75.9285 156.609 82.8771C156.689 85.299 156.464 87.739 156.377 90.2654Z" fill="white"/>
<path d="M156.377 90.2654C149.843 90.0564 143.649 89.8618 137.449 89.6635C137.558 88.0489 137.783 86.5604 137.728 85.0792C137.623 82.1058 135.715 80.7687 132.812 81.5184C130.697 82.0662 129.663 83.6412 129.144 85.5946C128.661 87.4074 128.872 89.2671 130.53 90.2834C132.446 91.4547 134.59 92.3089 136.716 93.091C139.709 94.1902 142.891 94.8353 145.786 96.1292C152.241 99.016 154.381 103.514 153.202 110.434C151.606 119.779 146.008 125.538 137.086 128.216C130.624 130.155 123.999 130.451 117.363 129.157C107.429 127.218 102.513 120.356 103.794 110.365C103.907 109.479 104.019 108.592 104.168 107.45C110.695 107.45 117.175 107.45 123.582 107.45C123.582 108.992 123.484 110.603 123.604 112.2C123.778 114.503 125.022 115.908 126.876 116.153C129.402 116.485 131.245 115.479 132.134 113.288C133.353 110.271 132.823 108.462 129.855 107.06C127.471 105.936 124.888 105.226 122.406 104.3C120.378 103.543 118.285 102.898 116.358 101.928C110.593 99.0268 108.112 94.0713 108.823 87.6813C109.908 77.936 115.411 71.9496 124.678 69.2574C131.586 67.25 138.613 66.9364 145.598 68.9042C152.35 70.8072 156.362 75.9285 156.609 82.8771C156.689 85.299 156.464 87.739 156.377 90.2654Z" fill="url(#paint5_linear_164_5268)" fill-opacity="0.2"/>
<path d="M10.2785 2.39985C16.1924 3.16031 21.9285 3.90274 27.846 4.6632C27.7299 5.18218 27.6682 5.62908 27.5304 6.05436C24.6315 15.0969 22.1607 24.2476 21.1013 33.701C20.7893 36.4869 20.8618 39.3269 20.9489 42.1345C20.9925 43.522 21.4895 44.9709 23.0714 45.3889C24.7331 45.8286 26.2569 45.0754 26.9136 43.659C28.3431 40.5775 29.7871 37.4384 30.6361 34.1731C33.4225 23.4547 34.725 12.4876 35.5341 1.24295C41.7636 0.88255 48.0004 0.525749 54.2771 0.165344C54.2771 1.95656 54.3787 3.72975 54.2626 5.48852C53.497 17.0071 52.1728 28.4391 48.4467 39.4495C46.346 45.6556 43.5051 51.4978 38.4475 55.9019C30.7449 62.6091 21.7798 63.7155 12.3103 60.8034C6.34199 58.969 3.54831 54.136 2.40907 48.2974C1.09568 41.5759 1.91564 34.9084 3.07665 28.2625C4.54968 19.7966 6.92612 11.5613 9.82138 3.47026C9.94111 3.13508 10.0971 2.81792 10.2785 2.39985Z" fill="white"/>
<path d="M10.2785 2.39985C16.1924 3.16031 21.9285 3.90274 27.846 4.6632C27.7299 5.18218 27.6682 5.62908 27.5304 6.05436C24.6315 15.0969 22.1607 24.2476 21.1013 33.701C20.7893 36.4869 20.8618 39.3269 20.9489 42.1345C20.9925 43.522 21.4895 44.9709 23.0714 45.3889C24.7331 45.8286 26.2569 45.0754 26.9136 43.659C28.3431 40.5775 29.7871 37.4384 30.6361 34.1731C33.4225 23.4547 34.725 12.4876 35.5341 1.24295C41.7636 0.88255 48.0004 0.525749 54.2771 0.165344C54.2771 1.95656 54.3787 3.72975 54.2626 5.48852C53.497 17.0071 52.1728 28.4391 48.4467 39.4495C46.346 45.6556 43.5051 51.4978 38.4475 55.9019C30.7449 62.6091 21.7798 63.7155 12.3103 60.8034C6.34199 58.969 3.54831 54.136 2.40907 48.2974C1.09568 41.5759 1.91564 34.9084 3.07665 28.2625C4.54968 19.7966 6.92612 11.5613 9.82138 3.47026C9.94111 3.13508 10.0971 2.81792 10.2785 2.39985Z" fill="url(#paint6_linear_164_5268)" fill-opacity="0.2"/>
<path d="M213.571 68.7852C222.696 68.7852 231.803 68.7852 241.228 68.7852C241.228 88.9607 241.228 109.27 241.228 129.701C234.948 129.701 228.457 129.701 221.778 129.701C221.93 126.738 222.083 123.769 222.246 120.622C218.52 120.622 214.874 120.622 211.1 120.622C210.44 122.68 209.747 124.835 209.054 126.998C202.817 126.998 196.667 126.998 190.253 126.998C198.032 107.576 205.731 88.3516 213.571 68.7852ZM215.759 106.321C218.364 106.321 220.621 106.321 222.997 106.321C223.356 98.5979 223.708 90.997 224.06 83.3961C223.933 83.3708 223.806 83.342 223.679 83.3168C221.06 90.9249 218.44 98.5331 215.759 106.321Z" fill="white"/>
<path d="M213.571 68.7852C222.696 68.7852 231.803 68.7852 241.228 68.7852C241.228 88.9607 241.228 109.27 241.228 129.701C234.948 129.701 228.457 129.701 221.778 129.701C221.93 126.738 222.083 123.769 222.246 120.622C218.52 120.622 214.874 120.622 211.1 120.622C210.44 122.68 209.747 124.835 209.054 126.998C202.817 126.998 196.667 126.998 190.253 126.998C198.032 107.576 205.731 88.3516 213.571 68.7852ZM215.759 106.321C218.364 106.321 220.621 106.321 222.997 106.321C223.356 98.5979 223.708 90.997 224.06 83.3961C223.933 83.3708 223.806 83.342 223.679 83.3168C221.06 90.9249 218.44 98.5331 215.759 106.321Z" fill="url(#paint7_linear_164_5268)" fill-opacity="0.2"/>
<path d="M135.453 25.3099C135.54 23.7926 135.653 22.1924 135.715 20.5922C135.74 19.9362 135.686 19.2731 135.624 18.6171C135.464 17.0061 135.116 15.4095 133.309 14.9086C131.491 14.4076 129.735 15.0744 128.872 16.6061C127.475 19.0857 126.064 21.6986 125.418 24.4305C124.152 29.7825 123.343 35.2462 122.49 40.6847C122.283 42.011 122.454 43.4598 122.748 44.7861C123.397 47.7234 126.183 48.7578 128.549 46.844C129.666 45.943 130.577 44.5915 131.147 43.2616C132.181 40.8505 132.888 38.3025 133.715 35.8517C140.402 35.8517 147.125 35.8517 153.895 35.8517C150.659 53.5872 139.092 62.7992 122.53 62.3775C120.248 62.3198 117.929 62.0711 115.713 61.5558C107.901 59.7393 103.246 54.7693 102.528 46.3971C101.385 33.0478 104.222 20.585 112.952 9.98906C117.82 4.08202 124.42 1.02939 132.021 0.510411C135.529 0.272544 139.187 0.423914 142.612 1.15193C150.176 2.75573 154.904 8.12576 155.771 15.7736C156.116 18.819 155.829 21.9401 155.829 25.3099C148.906 25.3099 142.242 25.3099 135.453 25.3099Z" fill="white"/>
<path d="M135.453 25.3099C135.54 23.7926 135.653 22.1924 135.715 20.5922C135.74 19.9362 135.686 19.2731 135.624 18.6171C135.464 17.0061 135.116 15.4095 133.309 14.9086C131.491 14.4076 129.735 15.0744 128.872 16.6061C127.475 19.0857 126.064 21.6986 125.418 24.4305C124.152 29.7825 123.343 35.2462 122.49 40.6847C122.283 42.011 122.454 43.4598 122.748 44.7861C123.397 47.7234 126.183 48.7578 128.549 46.844C129.666 45.943 130.577 44.5915 131.147 43.2616C132.181 40.8505 132.888 38.3025 133.715 35.8517C140.402 35.8517 147.125 35.8517 153.895 35.8517C150.659 53.5872 139.092 62.7992 122.53 62.3775C120.248 62.3198 117.929 62.0711 115.713 61.5558C107.901 59.7393 103.246 54.7693 102.528 46.3971C101.385 33.0478 104.222 20.585 112.952 9.98906C117.82 4.08202 124.42 1.02939 132.021 0.510411C135.529 0.272544 139.187 0.423914 142.612 1.15193C150.176 2.75573 154.904 8.12576 155.771 15.7736C156.116 18.819 155.829 21.9401 155.829 25.3099C148.906 25.3099 142.242 25.3099 135.453 25.3099Z" fill="url(#paint8_linear_164_5268)" fill-opacity="0.2"/>
<path d="M211.046 4.08895C217.798 4.08895 224.122 4.08895 230.533 4.08895C229.6 17.2798 228.671 30.4057 227.743 43.528C227.953 43.5713 228.167 43.6145 228.378 43.6578C232.956 29.5984 237.531 15.539 242.15 1.35709C248.634 1.35709 255.084 1.35709 261.822 1.35709C254.021 21.72 246.232 42.054 238.5 62.2403C229.19 62.2403 220.087 62.2403 211.046 62.2403C211.046 42.7784 211.046 23.5616 211.046 4.08895Z" fill="white"/>
<path d="M211.046 4.08895C217.798 4.08895 224.122 4.08895 230.533 4.08895C229.6 17.2798 228.671 30.4057 227.743 43.528C227.953 43.5713 228.167 43.6145 228.378 43.6578C232.956 29.5984 237.531 15.539 242.15 1.35709C248.634 1.35709 255.084 1.35709 261.822 1.35709C254.021 21.72 246.232 42.054 238.5 62.2403C229.19 62.2403 220.087 62.2403 211.046 62.2403C211.046 42.7784 211.046 23.5616 211.046 4.08895Z" fill="url(#paint9_linear_164_5268)" fill-opacity="0.2"/>
<path d="M280.031 17.4456C279.545 19.9035 279.135 21.9939 278.689 24.2608C284.142 24.2608 289.37 24.2608 294.751 24.2608C293.818 29.2236 292.919 34.0206 291.997 38.9293C286.744 38.9293 281.57 38.9293 276.204 38.9293C275.859 41.0052 275.533 42.9911 275.152 45.2868C281.653 45.4995 288.013 45.7085 294.497 45.9247C293.43 51.1074 292.382 56.1963 291.297 61.469C278.787 61.1843 266.328 60.8996 253.72 60.6112C257.319 40.998 260.889 21.547 264.503 1.85445C277.234 1.66344 290.012 1.46882 303.023 1.2742C302.029 6.71271 301.086 11.8845 300.066 17.4492C293.456 17.4456 286.787 17.4456 280.031 17.4456Z" fill="white"/>
<path d="M280.031 17.4456C279.545 19.9035 279.135 21.9939 278.689 24.2608C284.142 24.2608 289.37 24.2608 294.751 24.2608C293.818 29.2236 292.919 34.0206 291.997 38.9293C286.744 38.9293 281.57 38.9293 276.204 38.9293C275.859 41.0052 275.533 42.9911 275.152 45.2868C281.653 45.4995 288.013 45.7085 294.497 45.9247C293.43 51.1074 292.382 56.1963 291.297 61.469C278.787 61.1843 266.328 60.8996 253.72 60.6112C257.319 40.998 260.889 21.547 264.503 1.85445C277.234 1.66344 290.012 1.46882 303.023 1.2742C302.029 6.71271 301.086 11.8845 300.066 17.4492C293.456 17.4456 286.787 17.4456 280.031 17.4456Z" fill="url(#paint10_linear_164_5268)" fill-opacity="0.2"/>
<path d="M163.945 69.6971C170.059 69.6971 176.143 69.6971 182.402 69.6971C179.775 83.8358 177.163 97.8879 174.489 112.282C180.577 112.282 186.414 112.282 192.473 112.282C191.36 117.818 190.318 123.015 189.273 128.209C177.195 128.209 165.197 128.209 153.028 128.209C156.685 108.603 160.31 89.1806 163.945 69.6971Z" fill="white"/>
<path d="M163.945 69.6971C170.059 69.6971 176.143 69.6971 182.402 69.6971C179.775 83.8358 177.163 97.8879 174.489 112.282C180.577 112.282 186.414 112.282 192.473 112.282C191.36 117.818 190.318 123.015 189.273 128.209C177.195 128.209 165.197 128.209 153.028 128.209C156.685 108.603 160.31 89.1806 163.945 69.6971Z" fill="url(#paint11_linear_164_5268)" fill-opacity="0.2"/>
<path d="M97.405 128.364C91.0557 128.364 84.9024 128.364 78.5168 128.364C82.2466 108.668 85.9546 89.0832 89.7024 69.2934C95.8485 69.2934 102.035 69.2934 108.507 69.2934C104.817 88.9318 101.124 108.585 97.405 128.364Z" fill="white"/>
<path d="M97.405 128.364C91.0557 128.364 84.9024 128.364 78.5168 128.364C82.2466 108.668 85.9546 89.0832 89.7024 69.2934C95.8485 69.2934 102.035 69.2934 108.507 69.2934C104.817 88.9318 101.124 108.585 97.405 128.364Z" fill="url(#paint12_linear_164_5268)" fill-opacity="0.2"/>
<path d="M41.7308 69.351C45.1994 69.351 48.5627 69.351 52.0566 69.351C49.8978 80.6533 47.7499 91.8727 45.5839 103.2C42.2243 103.2 38.9372 103.2 35.3344 103.2C35.9439 99.9674 36.5426 96.7778 37.1666 93.4693C35.7335 93.4693 34.3693 93.4693 32.802 93.4693C32.3049 96.1399 31.8042 98.8177 31.2963 101.557C27.9439 101.557 24.7076 101.557 21.1193 101.557C23.0459 91.3321 24.9543 81.2047 26.8917 70.9296C30.2006 70.9296 33.4369 70.9296 36.9417 70.9296C36.0963 75.5103 35.2546 80.0694 34.3838 84.7908C35.9113 84.7908 37.3118 84.7908 38.8356 84.7908C39.8007 79.6153 40.7585 74.5156 41.7308 69.351Z" fill="white"/>
<path d="M41.7308 69.351C45.1994 69.351 48.5627 69.351 52.0566 69.351C49.8978 80.6533 47.7499 91.8727 45.5839 103.2C42.2243 103.2 38.9372 103.2 35.3344 103.2C35.9439 99.9674 36.5426 96.7778 37.1666 93.4693C35.7335 93.4693 34.3693 93.4693 32.802 93.4693C32.3049 96.1399 31.8042 98.8177 31.2963 101.557C27.9439 101.557 24.7076 101.557 21.1193 101.557C23.0459 91.3321 24.9543 81.2047 26.8917 70.9296C30.2006 70.9296 33.4369 70.9296 36.9417 70.9296C36.0963 75.5103 35.2546 80.0694 34.3838 84.7908C35.9113 84.7908 37.3118 84.7908 38.8356 84.7908C39.8007 79.6153 40.7585 74.5156 41.7308 69.351Z" fill="url(#paint13_linear_164_5268)" fill-opacity="0.2"/>
<path d="M46.8757 102.422C48.8784 91.4979 50.8195 80.9128 52.8077 70.0826C59.8318 70.0826 66.7543 70.0826 73.8111 70.0826C73.3176 72.7965 72.8097 75.604 72.2473 78.6819C68.67 78.6819 65.0672 78.6819 61.3375 78.6819C61.0835 80.001 60.8767 81.075 60.6264 82.3724C63.5906 82.3724 66.2863 82.3724 69.3085 82.3724C68.8042 85.1476 68.3434 87.692 67.85 90.3951C64.9656 90.3951 62.1611 90.3951 59.2404 90.3951C59.0481 91.5303 58.8812 92.5214 58.649 93.8838C62.1647 93.8838 65.5643 93.8838 69.2505 93.8838C68.6047 97.0553 68.0423 99.8269 67.5162 102.422C60.6264 102.422 53.8925 102.422 46.8757 102.422Z" fill="white"/>
<path d="M46.8757 102.422C48.8784 91.4979 50.8195 80.9128 52.8077 70.0826C59.8318 70.0826 66.7543 70.0826 73.8111 70.0826C73.3176 72.7965 72.8097 75.604 72.2473 78.6819C68.67 78.6819 65.0672 78.6819 61.3375 78.6819C61.0835 80.001 60.8767 81.075 60.6264 82.3724C63.5906 82.3724 66.2863 82.3724 69.3085 82.3724C68.8042 85.1476 68.3434 87.692 67.85 90.3951C64.9656 90.3951 62.1611 90.3951 59.2404 90.3951C59.0481 91.5303 58.8812 92.5214 58.649 93.8838C62.1647 93.8838 65.5643 93.8838 69.2505 93.8838C68.6047 97.0553 68.0423 99.8269 67.5162 102.422C60.6264 102.422 53.8925 102.422 46.8757 102.422Z" fill="url(#paint14_linear_164_5268)" fill-opacity="0.2"/>
<path d="M16.7657 79.3559C15.3072 87.1118 13.8704 94.756 12.4155 102.505C9.00507 102.505 5.6454 102.505 2.11158 102.505C3.56647 94.8497 5.01773 87.2199 6.50164 79.4244C4.3175 79.4244 2.29299 79.4244 0 79.4244C0.602273 76.2204 1.16826 73.2002 1.74877 70.0971C9.58557 70.0971 17.299 70.0971 25.1503 70.0971C24.5227 73.1749 23.9022 76.1987 23.2564 79.3559C21.1049 79.3559 19.0188 79.3559 16.7657 79.3559Z" fill="white"/>
<path d="M16.7657 79.3559C15.3072 87.1118 13.8704 94.756 12.4155 102.505C9.00507 102.505 5.6454 102.505 2.11158 102.505C3.56647 94.8497 5.01773 87.2199 6.50164 79.4244C4.3175 79.4244 2.29299 79.4244 0 79.4244C0.602273 76.2204 1.16826 73.2002 1.74877 70.0971C9.58557 70.0971 17.299 70.0971 25.1503 70.0971C24.5227 73.1749 23.9022 76.1987 23.2564 79.3559C21.1049 79.3559 19.0188 79.3559 16.7657 79.3559Z" fill="url(#paint15_linear_164_5268)" fill-opacity="0.2"/>
<defs>
<linearGradient id="paint0_linear_164_5268" x1="77.6006" y1="0.348236" x2="77.6006" y2="62.6045" gradientUnits="userSpaceOnUse">
<stop offset="0.380208" stop-color="#20EEF8" stop-opacity="0"/>
<stop offset="1" stop-color="#20EEF8" stop-opacity="0.83"/>
</linearGradient>
<linearGradient id="paint1_linear_164_5268" x1="272.069" y1="67.7581" x2="272.069" y2="130" gradientUnits="userSpaceOnUse">
<stop offset="0.380208" stop-color="#20EEF8" stop-opacity="0"/>
<stop offset="1" stop-color="#20EEF8" stop-opacity="0.83"/>
</linearGradient>
<linearGradient id="paint2_linear_164_5268" x1="321.355" y1="68.1473" x2="321.355" y2="129.88" gradientUnits="userSpaceOnUse">
<stop offset="0.380208" stop-color="#20EEF8" stop-opacity="0"/>
<stop offset="1" stop-color="#20EEF8" stop-opacity="0.83"/>
</linearGradient>
<linearGradient id="paint3_linear_164_5268" x1="322.443" y1="0" x2="322.443" y2="62.9611" gradientUnits="userSpaceOnUse">
<stop offset="0.380208" stop-color="#20EEF8" stop-opacity="0"/>
<stop offset="1" stop-color="#20EEF8" stop-opacity="0.83"/>
</linearGradient>
<linearGradient id="paint4_linear_164_5268" x1="181.97" y1="0.336243" x2="181.97" y2="62.6154" gradientUnits="userSpaceOnUse">
<stop offset="0.380208" stop-color="#20EEF8" stop-opacity="0"/>
<stop offset="1" stop-color="#20EEF8" stop-opacity="0.83"/>
</linearGradient>
<linearGradient id="paint5_linear_164_5268" x1="130.11" y1="67.5797" x2="130.11" y2="129.943" gradientUnits="userSpaceOnUse">
<stop offset="0.380208" stop-color="#20EEF8" stop-opacity="0"/>
<stop offset="1" stop-color="#20EEF8" stop-opacity="0.83"/>
</linearGradient>
<linearGradient id="paint6_linear_164_5268" x1="28.0273" y1="0.165344" x2="28.0273" y2="62.318" gradientUnits="userSpaceOnUse">
<stop offset="0.380208" stop-color="#20EEF8" stop-opacity="0"/>
<stop offset="1" stop-color="#20EEF8" stop-opacity="0.83"/>
</linearGradient>
<linearGradient id="paint7_linear_164_5268" x1="215.741" y1="68.7852" x2="215.741" y2="129.701" gradientUnits="userSpaceOnUse">
<stop offset="0.380208" stop-color="#20EEF8" stop-opacity="0"/>
<stop offset="1" stop-color="#20EEF8" stop-opacity="0.83"/>
</linearGradient>
<linearGradient id="paint8_linear_164_5268" x1="129.114" y1="0.406219" x2="129.114" y2="62.3913" gradientUnits="userSpaceOnUse">
<stop offset="0.380208" stop-color="#20EEF8" stop-opacity="0"/>
<stop offset="1" stop-color="#20EEF8" stop-opacity="0.83"/>
</linearGradient>
<linearGradient id="paint9_linear_164_5268" x1="236.434" y1="1.35709" x2="236.434" y2="62.2403" gradientUnits="userSpaceOnUse">
<stop offset="0.380208" stop-color="#20EEF8" stop-opacity="0"/>
<stop offset="1" stop-color="#20EEF8" stop-opacity="0.83"/>
</linearGradient>
<linearGradient id="paint10_linear_164_5268" x1="278.372" y1="1.2742" x2="278.372" y2="61.469" gradientUnits="userSpaceOnUse">
<stop offset="0.380208" stop-color="#20EEF8" stop-opacity="0"/>
<stop offset="1" stop-color="#20EEF8" stop-opacity="0.83"/>
</linearGradient>
<linearGradient id="paint11_linear_164_5268" x1="172.751" y1="69.6971" x2="172.751" y2="128.209" gradientUnits="userSpaceOnUse">
<stop offset="0.380208" stop-color="#20EEF8" stop-opacity="0"/>
<stop offset="1" stop-color="#20EEF8" stop-opacity="0.83"/>
</linearGradient>
<linearGradient id="paint12_linear_164_5268" x1="93.512" y1="69.2934" x2="93.512" y2="128.364" gradientUnits="userSpaceOnUse">
<stop offset="0.380208" stop-color="#20EEF8" stop-opacity="0"/>
<stop offset="1" stop-color="#20EEF8" stop-opacity="0.83"/>
</linearGradient>
<linearGradient id="paint13_linear_164_5268" x1="36.5879" y1="69.351" x2="36.5879" y2="103.2" gradientUnits="userSpaceOnUse">
<stop offset="0.380208" stop-color="#20EEF8" stop-opacity="0"/>
<stop offset="1" stop-color="#20EEF8" stop-opacity="0.83"/>
</linearGradient>
<linearGradient id="paint14_linear_164_5268" x1="60.3434" y1="70.0826" x2="60.3434" y2="102.422" gradientUnits="userSpaceOnUse">
<stop offset="0.380208" stop-color="#20EEF8" stop-opacity="0"/>
<stop offset="1" stop-color="#20EEF8" stop-opacity="0.83"/>
</linearGradient>
<linearGradient id="paint15_linear_164_5268" x1="12.5752" y1="70.0971" x2="12.5752" y2="102.505" gradientUnits="userSpaceOnUse">
<stop offset="0.380208" stop-color="#20EEF8" stop-opacity="0"/>
<stop offset="1" stop-color="#20EEF8" stop-opacity="0.83"/>
</linearGradient>
</defs>
</svg>
